:SAMPLES-PER-SECOND 30
:FULLY-SPECIFIED
:DEGREES
1480
root  39.3625 38.3423 7.62964 27.1595 77.5995 33.477
RightUpLeg  17.4609 -13.471 -13.5578
RightLeg  22.8391 0.414396 -0.0189081
RightFoot  -18.735 0.776575 13.9298
RightToes  3.49245e-010 0 -3.6325e-017
Spine  9.33786 1.50383 4.73291
Spine1  3.101 4.30119 -12.8477
HEad  -8.52135 -10.0488 -20.9927
LeftShoulder1  0.71091 1.50588 -29.4818
LeftArm  -2.98065 30.0777 -35.4205
LeftForeArm  30.0505 -3.50191 -8.28656
LeftHand  -0.220205 9.78158 -4.18479
RightShoulder  -0.510106 -5.00535 27.1381
RightArm  12.6863 3.40292 46.7287
RightForeArm  -21.2859 -5.53789 8.63774
RightHand  3.27029 30.6971 9.7694
LeftUpLeg  -10.8882 3.87741 -6.69074
LeftLeg  10.6597 15.615 0.380439
LeftFoot  4.68383 -0.783922 5.36382
LeftToes  -2.21735e-009 9.83027e-011 -4.04511e-011
1481
root  38.3036 38.345 7.51985 21.3295 76.8447 27.2776
RightUpLeg  18.1984 -12.5353 -11.5073
RightLeg  17.1001 -0.0229412 -0.184625
RightFoot  -20.4303 0.594364 9.1729
RightToes  3.49245e-010 0 -3.6325e-017
Spine  9.57943 1.03733 7.38674
Spine1  3.25435 4.30644 -13.3416
HEad  -9.2265 -8.54494 -20.351
LeftShoulder1  0.764095 1.36952 -29.7424
LeftArm  -3.01254 26.8809 -36.7647
LeftForeArm  31.2217 -2.28824 -8.52325
LeftHand  -0.187202 9.27074 -3.87356
RightShoulder  -0.535327 -5.05624 27.6643
RightArm  13.0667 5.59882 46.8462
RightForeArm  -20.8853 -4.14322 8.77094
RightHand  3.10484 30.8708 9.20299
LeftUpLeg  -11.9711 3.92729 -5.47324
LeftLeg  8.81149 16.8404 0.193515
LeftFoot  6.18767 -0.762644 4.70696
LeftToes  -2.21735e-009 9.83027e-011 -4.04511e-011
1482
root  37.2056 38.3402 7.3501 14.8773 75.946 20.0775
RightUpLeg  17.2877 -11.6876 -9.19641
RightLeg  13.4474 -0.786588 -0.0678232
RightFoot  -21.4856 0.34739 5.53718
RightToes  3.49245e-010 0 -3.6325e-017
Spine  10.2443 0.632157 10.0913
Spine1  2.93774 4.06812 -12.8675
HEad  -9.57544 -7.83811 -20.1275
LeftShoulder1  0.67132 1.69209 -30.9494
LeftArm  -2.25275 22.2334 -37.6227
LeftForeArm  34.3952 -1.51808 -9.24303
LeftHand  -0.218096 9.70323 -4.23112
RightShoulder  -0.442414 -4.81592 26.8211
RightArm  13.7471 7.71443 47.6502
RightForeArm  -21.4832 -3.49533 9.14745
RightHand  3.33002 30.6035 9.98517
LeftUpLeg  -13.5397 3.99889 -3.9495
LeftLeg  7.2971 18.1521 0.167343
LeftFoot  6.80637 -0.566003 3.28106
LeftToes  -2.21735e-009 9.83027e-011 -4.04511e-011
1483
root  36.1874 38.3638 7.23397 10.6917 75.4178 15.2193
RightUpLeg  16.0898 -11.2891 -7.42916
RightLeg  11.1262 -1.41065 0.49513
RightFoot  -21.7918 0.124864 2.96208
RightToes  3.49245e-010 0 -3.6325e-017
Spine  10.5831 0.143411 11.1869
Spine1  2.85323 3.31671 -11.1428
HEad  -9.38212 -6.16509 -19.4381
LeftShoulder1  0.662816 1.70445 -30.7508
LeftArm  -2.28352 18.7282 -39.7132
LeftForeArm  37.4019 -2.14132 -9.60121
LeftHand  -0.205138 9.49312 -4.11849
RightShoulder  -0.392198 -4.67096 26.6079
RightArm  14.8042 9.8386 48.0205
RightForeArm  -20.7921 -2.98063 9.58852
RightHand  3.30477 31.0026 9.78713
LeftUpLeg  -14.8616 4.01163 -2.60128
LeftLeg  5.89032 17.8665 -0.211667
LeftFoot  6.18278 -0.394804 2.31638
LeftToes  -2.21735e-009 9.83027e-011 -4.04511e-011
1484
root  35.2887 38.4657 7.08803 6.54898 75.0485 10.4675
RightUpLeg  14.5009 -10.6327 -5.64798
RightLeg  10.083 -1.79634 0.941335
RightFoot  -21.1976 0.0429685 2.16881
RightToes  3.49245e-010 0 -3.6325e-017
Spine  10.85 -0.425755 12.355
Spine1  2.84987 2.44485 -9.2531
HEad  -8.89589 -3.41462 -19.2381
LeftShoulder1  0.668755 1.67359 -30.4513
LeftArm  -2.18102 15.7988 -41.5212
LeftForeArm  37.1146 -3.90375 -9.84748
LeftHand  -0.150609 9.14721 -2.94461
RightShoulder  -0.362233 -4.58577 26.4248
RightArm  15.6471 11.6321 48.0744
RightForeArm  -20.4855 -2.66119 9.98321
RightHand  3.6667 30.7928 10.9785
LeftUpLeg  -15.5008 3.5815 -1.3642
LeftLeg  3.822 16.3831 -0.641566
LeftFoot  4.22846 -0.0609284 0.19135
LeftToes  -2.21735e-009 9.83027e-011 -4.04511e-011
1485
root  34.4755 38.6173 6.96833 3.23181 74.8253 6.41907
RightUpLeg  12.9462 -10.036 -4.05007
RightLeg  9.01355 -1.6773 1.30139
RightFoot  -20.2452 0.0487578 2.38988
RightToes  3.49245e-010 0 -3.6325e-017
Spine  11.1563 -0.890995 12.7787
Spine1  2.78653 1.49898 -7.02895
HEad  -8.29029 -0.493336 -18.7542
LeftShoulder1  0.657894 1.72618 -30.9127
LeftArm  0.223492 12.8765 -41.7741
LeftForeArm  32.8185 -6.6024 -10.4183
LeftHand  -0.0778523 8.35637 -1.10494
RightShoulder  -0.40035 -4.68192 27.0065
RightArm  16.5753 12.9464 47.3864
RightForeArm  -20.5204 -2.5329 10.4608
RightHand  3.90071 30.5073 11.8123
LeftUpLeg  -16.5519 3.24291 -0.397218
LeftLeg  2.83234 11.6322 -0.709868
LeftFoot  1.98212 0.260394 -2.2836
LeftToes  -2.21735e-009 9.83027e-011 -4.04511e-011
1486
root  33.7337 38.8283 6.88327 5.20364 74.0657 7.59515
RightUpLeg  10.7763 -9.73747 -3.86287
RightLeg  8.70499 -1.35377 1.22079
RightFoot  -19.3262 0.0484092 2.56516
RightToes  3.49245e-010 0 -3.6325e-017
Spine  11.2229 -0.82057 11.2605
Spine1  3.07169 0.978958 -4.89285
HEad  -8.31714 1.64173 -15.9473
LeftShoulder1  0.676726 1.64546 -30.3813
LeftArm  3.65367 10.726 -42.6809
LeftForeArm  26.3497 -10.3845 -9.8952
LeftHand  -0.0054212 7.66396 1.66824
RightShoulder  -0.431756 -4.75681 27.4967
RightArm  16.2124 12.9495 46.7564
RightForeArm  -19.6954 -2.45949 10.2601
RightHand  4.07899 30.0924 12.5262
LeftUpLeg  -18.0193 2.0908 -0.906167
LeftLeg  3.3371 6.46406 -0.319687
LeftFoot  1.87071 0.231339 -2.10929
LeftToes  -2.21735e-009 9.83027e-011 -4.04511e-011
1487
root  33.0825 38.9772 6.78446 7.53772 73.1249 9.55258
RightUpLeg  8.73834 -9.74531 -4.19535
RightLeg  9.28005 -0.71866 1.06519
RightFoot  -18.8607 0.0451826 2.63312
RightToes  3.49245e-010 0 -3.6325e-017
Spine  11.9213 -0.845329 10.4103
Spine1  3.05994 0.766098 -4.17396
HEad  -8.62477 2.98919 -13.0778
LeftShoulder1  0.767009 1.30292 -28.7151
LeftArm  6.43421 9.16373 -43.9789
LeftForeArm  18.6789 -14.7487 -7.90212
LeftHand  0.0130927 6.98509 3.43794
RightShoulder  -0.507543 -4.96482 27.9064
RightArm  15.2386 11.8332 46.8869
RightForeArm  -20.2468 -2.79103 9.80914
RightHand  3.96258 30.4294 12.0333
LeftUpLeg  -19.5383 1.44079 -1.79641
LeftLeg  6.10873 2.98899 -0.0762578
LeftFoot  0.918307 0.338429 -3.19314
LeftToes  -2.21735e-009 9.83027e-011 -4.04511e-011
1488
root  32.5448 39.0606 6.69348 8.81293 72.6024 10.8042
RightUpLeg  7.54821 -9.91035 -4.52403
RightLeg  9.63167 -0.193945 1.07542
RightFoot  -18.8646 0.086367 3.25617
RightToes  3.49245e-010 0 -3.6325e-017
Spine  12.7747 -1.05738 9.92747
Spine1  3.23506 0.378311 -3.28839
HEad  -8.99624 4.47981 -11.0477
LeftShoulder1  0.757471 1.33354 -28.8051
LeftArm  10.4431 7.19004 -43.0045
LeftForeArm  11.0647 -20.1798 -5.44298
LeftHand  -0.0148106 5.66635 4.07349
RightShoulder  -0.441076 -4.79749 27.1592
RightArm  14.0021 9.87663 47.7452
RightForeArm  -21.1873 -3.43774 9.30653
RightHand  3.83923 30.7929 11.5174
LeftUpLeg  -21.015 1.3691 -2.80366
LeftLeg  10.772 -0.199661 -0.100384
LeftFoot  0.20885 0.339208 -3.37738
LeftToes  -2.21735e-009 9.83027e-011 -4.04511e-011
1489
root  32.1602 39.0844 6.6274 9.9614 72.3323 11.9787
RightUpLeg  6.8941 -10.3037 -4.96178
RightLeg  9.73716 0.449802 1.20601
RightFoot  -19.3427 0.154093 4.06837
RightToes  3.49245e-010 0 -3.6325e-017
Spine  12.5896 -1.22288 9.73437
Spine1  4.45836 0.0440368 -2.50284
HEad  -9.5715 5.45453 -10.0036
LeftShoulder1  0.728618 1.45571 -29.4753
LeftArm  8.51964 4.91431 -41.2584
LeftForeArm  11.235 -25.1712 -4.62331
LeftHand  -0.0384997 4.94147 3.65687
RightShoulder  -0.387518 -4.65966 26.5304
RightArm  12.3021 7.49264 48.297
RightForeArm  -21.0943 -3.87414 8.53036
RightHand  3.72241 30.9658 11.0942
LeftUpLeg  -22.2484 0.850395 -3.76676
LeftLeg  16.1124 -1.60233 -0.184633
LeftFoot  -0.437167 0.405339 -4.21334
LeftToes  -2.21735e-009 9.83027e-011 -4.04511e-011
1490
root  31.8808 39.0492 6.57224 10.1367 72.4068 12.1522
RightUpLeg  6.42336 -10.6427 -5.07215
RightLeg  9.97203 0.775446 1.40945
RightFoot  -20.192 0.265649 5.1989
RightToes  3.49245e-010 0 -3.6325e-017
Spine  12.4484 -1.52671 10.4029
Spine1  5.03012 -0.172836 -2.60474
HEad  -9.32594 6.2966 -8.72666
LeftShoulder1  0.795479 1.25479 -29.2685
LeftArm  2.66969 3.96845 -40.3433
LeftForeArm  15.6263 -29.6358 -5.58319
LeftHand  -0.0485515 4.70123 4.82722
RightShoulder  -0.434416 -4.77379 27.2787
RightArm  13.0585 5.96655 47.3208
RightForeArm  -22.0178 -5.43901 8.96621
RightHand  3.80162 31.2132 11.2566
LeftUpLeg  -23.6454 -0.0946306 -4.33378
LeftLeg  22.293 -1.46586 -0.331111
LeftFoot  -0.28369 0.361009 -3.71619
LeftToes  -2.21735e-009 9.83027e-011 -4.04511e-011
1491
root  31.6718 39.0118 6.54591 9.85211 72.2695 11.5636
RightUpLeg  5.81592 -10.7139 -4.88577
RightLeg  10.053 1.10093 1.60385
RightFoot  -20.8923 0.39086 6.37004
RightToes  3.49245e-010 0 -3.6325e-017
Spine  12.201 -1.60228 11.0064
Spine1  5.44086 -0.218399 -2.50189
HEad  -8.22064 7.68743 -8.28014
LeftShoulder1  0.778262 1.31095 -29.3998
LeftArm  -2.39998 3.89569 -40.0157
LeftForeArm  19.2804 -34.0513 -6.47419
LeftHand  -0.0756762 4.22419 5.43892
RightShoulder  -0.464226 -4.85058 27.5819
RightArm  13.2453 4.35763 46.2626
RightForeArm  -20.1418 -6.68855 9.01141
RightHand  3.58071 30.3126 10.8674
LeftUpLeg  -24.8918 -0.0352907 -4.87371
LeftLeg  27.5151 -1.77798 -0.686919
LeftFoot  -0.0563911 0.281423 -2.84382
LeftToes  -2.21735e-009 9.83027e-011 -4.04511e-011
1492
root  31.5374 38.9935 6.57833 9.60803 72.101 10.9333
RightUpLeg  5.38217 -10.7228 -4.63157
RightLeg  9.80722 1.38507 1.77241
RightFoot  -21.4741 0.519383 7.49718
RightToes  3.49245e-010 0 -3.6325e-017
Spine  11.9509 -1.58726 10.7831
Spine1  5.56813 -0.451706 -1.56522
HEad  -6.18669 8.92767 -8.07836
LeftShoulder1  0.689193 1.57213 -29.5719
LeftArm  -5.27497 4.55747 -39.8061
LeftForeArm  20.3314 -37.8685 -7.45661
LeftHand  -0.148455 3.24104 7.46375
RightShoulder  -0.465449 -4.84326 27.8558
RightArm  13.5978 2.95781 44.9031
RightForeArm  -17.4251 -7.06318 9.26575
RightHand  3.5822 29.1426 11.2756
LeftUpLeg  -25.6978 1.13767 -5.53916
LeftLeg  31.0166 -2.53693 -1.2952
LeftFoot  -0.103849 0.289969 -2.941
LeftToes  -2.21735e-009 9.83027e-011 -4.04511e-011
